<svg width="23" height="23" viewBox="0 0 23 23" fill="none" xmlns="http://www.w3.org/2000/svg">
<path d="M13.5364 22.1609V15.0135H15.0386C15.8266 15.0135 16.495 14.4389 16.6157 13.6618L16.6158 13.6612L16.7385 12.8646C16.7385 12.8646 16.7385 12.8646 16.7385 12.8646C16.8874 11.898 16.1394 11.026 15.1614 11.026H13.5364V9.89301C13.5364 9.31326 13.6334 8.82784 13.8182 8.50521C13.9842 8.21551 14.2184 8.05096 14.6034 8.05096H15.1057C16.1352 8.05096 16.9693 7.21688 16.9693 6.18733C16.9693 5.20375 16.2068 4.37549 15.2114 4.32659C14.9078 4.31136 14.5528 4.3021 14.1398 4.3021C12.6881 4.3021 11.4521 4.68659 10.5843 5.58906C9.71991 6.48804 9.30114 7.8179 9.30114 9.53733V11.0248H7.96819C6.86704 11.0248 5.975 11.9169 5.975 13.018C5.975 14.1192 6.86704 15.0112 7.96819 15.0112H9.30228V22.1271C4.1153 21.0605 0.276862 16.3102 0.663582 10.7253M13.5364 22.1609L11.1367 0.641612C5.6581 0.820828 1.04238 5.25815 0.663582 10.7253M13.5364 22.1609C18.5631 21.2056 22.3636 16.8 22.3636 11.4998C22.3636 5.37926 17.3024 0.441776 11.1368 0.641608L13.5364 22.1609ZM0.663582 10.7253L0.164776 10.6907M0.663582 10.7253L0.164776 10.6907M0.164776 10.6907C-0.242247 16.5689 3.82627 21.5626 9.30228 22.6371L11.1205 0.141875C5.38637 0.329375 0.561367 4.96687 0.164776 10.6907Z" stroke="white"/>
</svg>
