<svg width="21" height="21" viewBox="0 0 21 21" fill="none" xmlns="http://www.w3.org/2000/svg">
<path d="M0.63623 5.95428C0.63623 3.09292 2.95669 0.772461 5.81805 0.772461H14.909C17.7703 0.772461 20.0908 3.09292 20.0908 5.95428V15.0452C20.0908 17.9065 17.7703 20.227 14.909 20.227H5.81805C2.95669 20.227 0.63623 17.9065 0.63623 15.0452V5.95428ZM18.818 3.68155C18.818 2.77814 18.0851 2.04519 17.1817 2.04519C16.2783 2.04519 15.5453 2.77814 15.5453 3.68155C15.5453 4.58497 16.2783 5.31791 17.1817 5.31791C18.0851 5.31791 18.818 4.58497 18.818 3.68155ZM16.5453 10.4997C16.5453 7.08609 13.7771 4.31791 10.3635 4.31791C6.94986 4.31791 4.18168 7.08609 4.18168 10.4997C4.18168 13.9134 6.94986 16.6815 10.3635 16.6815C13.7771 16.6815 16.5453 13.9134 16.5453 10.4997ZM8.30646 8.44269C8.85202 7.89713 9.59196 7.59064 10.3635 7.59064C11.135 7.59064 11.875 7.89713 12.4205 8.44269C12.9661 8.98825 13.2726 9.72819 13.2726 10.4997C13.2726 11.2713 12.9661 12.0112 12.4205 12.5568C11.875 13.1023 11.135 13.4088 10.3635 13.4088C9.59196 13.4088 8.85202 13.1023 8.30646 12.5568C7.7609 12.0112 7.45441 11.2713 7.45441 10.4997C7.45441 9.72819 7.7609 8.98825 8.30646 8.44269Z" stroke="white"/>
</svg>
