<svg width="21" height="21" viewBox="0 0 21 21" fill="none" xmlns="http://www.w3.org/2000/svg">
<path d="M0.636719 5.81805C0.636719 2.95669 2.95718 0.63623 5.81854 0.63623H14.9094C17.7708 0.63623 20.0913 2.95669 20.0913 5.81805V14.909C20.0913 17.7703 17.7708 20.0908 14.9094 20.0908H5.81854C2.95718 20.0908 0.636719 17.7703 0.636719 14.909V5.81805ZM18.8185 3.54532C18.8185 2.64191 18.0856 1.90896 17.1822 1.90896C16.2788 1.90896 15.5458 2.64191 15.5458 3.54532C15.5458 4.44874 16.2788 5.18168 17.1822 5.18168C18.0856 5.18168 18.8185 4.44874 18.8185 3.54532ZM16.5458 10.3635C16.5458 6.94986 13.7776 4.18168 10.364 4.18168C6.95035 4.18168 4.18217 6.94986 4.18217 10.3635C4.18217 13.7771 6.95035 16.5453 10.364 16.5453C13.7776 16.5453 16.5458 13.7771 16.5458 10.3635ZM8.30695 8.30646C8.85251 7.7609 9.59245 7.45441 10.364 7.45441C11.1355 7.45441 11.8755 7.7609 12.421 8.30646C12.9666 8.85202 13.2731 9.59196 13.2731 10.3635C13.2731 11.135 12.9666 11.875 12.421 12.4205C11.8755 12.9661 11.1355 13.2726 10.364 13.2726C9.59245 13.2726 8.85251 12.9661 8.30695 12.4205C7.76139 11.875 7.4549 11.135 7.4549 10.3635C7.4549 9.59196 7.76139 8.85202 8.30695 8.30646Z" stroke="white"/>
</svg>
