<svg width="21" height="21" viewBox="0 0 21 21" fill="none" xmlns="http://www.w3.org/2000/svg">
<path d="M0.636719 5.81817C0.636719 2.95681 2.95718 0.636353 5.81854 0.636353H14.9094C17.7708 0.636353 20.0913 2.95681 20.0913 5.81817V14.9091C20.0913 17.7704 17.7708 20.0909 14.9094 20.0909H5.81854C2.95718 20.0909 0.636719 17.7704 0.636719 14.9091V5.81817ZM18.8185 3.54544C18.8185 2.64203 18.0856 1.90908 17.1822 1.90908C16.2788 1.90908 15.5458 2.64203 15.5458 3.54544C15.5458 4.44886 16.2788 5.18181 17.1822 5.18181C18.0856 5.18181 18.8185 4.44886 18.8185 3.54544ZM16.5458 10.3636C16.5458 6.94998 13.7776 4.18181 10.364 4.18181C6.95035 4.18181 4.18217 6.94998 4.18217 10.3636C4.18217 13.7773 6.95035 16.5454 10.364 16.5454C13.7776 16.5454 16.5458 13.7773 16.5458 10.3636ZM8.30695 8.30659C8.85251 7.76103 9.59245 7.45453 10.364 7.45453C11.1355 7.45453 11.8755 7.76103 12.421 8.30659C12.9666 8.85215 13.2731 9.59209 13.2731 10.3636C13.2731 11.1352 12.9666 11.8751 12.421 12.4207C11.8755 12.9662 11.1355 13.2727 10.364 13.2727C9.59245 13.2727 8.85251 12.9662 8.30695 12.4207C7.76139 11.8751 7.4549 11.1352 7.4549 10.3636C7.4549 9.59209 7.76139 8.85215 8.30695 8.30659Z" stroke="white"/>
</svg>
