<svg width="23" height="20" viewBox="0 0 23 20" fill="none" xmlns="http://www.w3.org/2000/svg">
<path d="M15.5498 0.863647C12.8328 0.863647 10.6233 3.01867 10.6233 5.66874C10.6233 5.82799 10.6641 5.98378 10.6801 6.13956C7.32064 5.82626 4.34984 4.24764 2.33203 1.83298C2.23798 1.717 2.09245 1.65469 1.93983 1.66507C1.78898 1.67546 1.65411 1.76028 1.57957 1.88837C1.15542 2.59978 0.912294 3.41852 0.912294 4.29784C0.912294 5.36237 1.30272 6.33689 1.90611 7.13658C1.78898 7.08639 1.66121 7.05869 1.55118 6.99811C1.41098 6.92541 1.24238 6.92887 1.10573 7.00849C0.969084 7.08812 0.885674 7.23178 0.8839 7.38584V7.44123C0.8839 9.07351 1.74994 10.4911 3.02771 11.3601C3.01351 11.3584 2.99931 11.3635 2.98511 11.3601C2.82894 11.3341 2.671 11.3878 2.56629 11.5037C2.46158 11.6197 2.42787 11.7807 2.47401 11.9278C2.98156 13.4666 4.27708 14.6419 5.88138 15.0712C4.60362 15.8121 3.12176 16.2483 1.52278 16.2483C1.17672 16.2483 0.844857 16.231 0.514767 16.1929C0.301807 16.1652 0.0977189 16.2863 0.0267321 16.4837C-0.0460296 16.681 0.0338308 16.9008 0.216622 17.0099C2.26637 18.2925 4.69945 19.0455 7.31532 19.0455C11.555 19.0455 14.8808 17.318 17.1115 14.8497C19.3423 12.3813 20.5047 9.17563 20.5047 6.1811C20.5047 6.05474 20.494 5.93185 20.4905 5.80722C21.3228 5.18581 22.0664 4.45708 22.6485 3.60546C22.7639 3.44102 22.7514 3.22119 22.6183 3.06887C22.487 2.91655 22.2652 2.86981 22.0806 2.95463C21.8463 3.05675 21.5731 3.06714 21.3281 3.14849C21.6511 2.72787 21.928 2.27437 22.0948 1.76374C22.1516 1.58891 22.0895 1.39678 21.9422 1.28254C21.7949 1.17002 21.589 1.15618 21.4275 1.25138C20.652 1.69969 19.7931 2.01472 18.8862 2.20686C18.006 1.4037 16.8471 0.863647 15.5498 0.863647ZM15.5498 1.74989C16.7087 1.74989 17.7557 2.23282 18.4887 2.99617C18.5987 3.10695 18.7602 3.15368 18.9146 3.1208C19.5073 3.00655 20.0699 2.83865 20.6183 2.62228C20.3024 3.03771 19.912 3.39255 19.4541 3.66085C19.2465 3.75951 19.1488 3.99319 19.2252 4.2061C19.2997 4.41727 19.5269 4.54017 19.7522 4.4917C20.2066 4.43804 20.6112 4.25803 21.0442 4.14551C20.6555 4.55575 20.2296 4.92617 19.7664 5.25332C19.6404 5.34333 19.5712 5.48873 19.5819 5.64105C19.589 5.82107 19.5961 5.99935 19.5961 6.1811C19.5961 8.95061 18.5064 11.9573 16.43 14.2542C14.3537 16.5512 11.3048 18.1592 7.31532 18.1592C5.50338 18.1592 3.79259 17.768 2.24685 17.0791C4.1635 16.9354 5.93107 16.2742 7.35791 15.182C7.50698 15.066 7.56555 14.8722 7.50521 14.6956C7.44487 14.5191 7.27805 14.3979 7.08816 14.3927C5.59033 14.3667 4.33564 13.5168 3.66659 12.3156C3.69143 12.3156 3.71273 12.3156 3.73758 12.3156C4.18657 12.3156 4.63024 12.2602 5.04374 12.1494C5.2425 12.0923 5.37915 11.9123 5.37205 11.7097C5.36495 11.5072 5.21765 11.3341 5.01534 11.2908C3.39861 10.9724 2.18651 9.68799 1.90611 8.09206C2.36398 8.24612 2.83249 8.36728 3.34005 8.38286C3.54769 8.39498 3.7358 8.26862 3.79969 8.07648C3.86358 7.88435 3.78549 7.67317 3.6098 7.56586C2.5308 6.86136 1.82093 5.66182 1.82093 4.29784C1.82093 3.7924 1.9558 3.32851 2.13327 2.88539C4.40485 5.31736 7.58507 6.93233 11.177 7.10889C11.319 7.11581 11.4574 7.05869 11.5497 6.9531C11.642 6.84578 11.6775 6.70385 11.6455 6.56883C11.5763 6.2815 11.5319 5.97685 11.5319 5.66874C11.5319 3.49814 13.3244 1.74989 15.5498 1.74989Z" fill="white"/>
</svg>
