<svg width="23" height="20" viewBox="0 0 23 20" fill="none" xmlns="http://www.w3.org/2000/svg">
<path d="M15.5498 0.86377C12.8328 0.86377 10.6233 3.01879 10.6233 5.66887C10.6233 5.82811 10.6641 5.9839 10.6801 6.13968C7.32064 5.82638 4.34984 4.24776 2.33203 1.8331C2.23798 1.71712 2.09245 1.65481 1.93983 1.6652C1.78898 1.67558 1.65411 1.7604 1.57957 1.88849C1.15542 2.5999 0.912294 3.41864 0.912294 4.29796C0.912294 5.36249 1.30272 6.33701 1.90611 7.1367C1.78898 7.08651 1.66121 7.05881 1.55118 6.99823C1.41098 6.92553 1.24238 6.92899 1.10573 7.00861C0.969084 7.08824 0.885674 7.23191 0.8839 7.38596V7.44135C0.8839 9.07363 1.74994 10.4913 3.02771 11.3602C3.01351 11.3585 2.99931 11.3637 2.98511 11.3602C2.82894 11.3342 2.671 11.3879 2.56629 11.5039C2.46158 11.6198 2.42787 11.7808 2.47401 11.928C2.98156 13.4668 4.27708 14.6421 5.88138 15.0713C4.60362 15.8122 3.12176 16.2484 1.52278 16.2484C1.17672 16.2484 0.844857 16.2311 0.514767 16.193C0.301807 16.1653 0.0977189 16.2865 0.0267321 16.4838C-0.0460296 16.6811 0.0338308 16.9009 0.216622 17.01C2.26637 18.2926 4.69945 19.0456 7.31532 19.0456C11.555 19.0456 14.8808 17.3181 17.1115 14.8498C19.3423 12.3815 20.5047 9.17575 20.5047 6.18122C20.5047 6.05487 20.494 5.93197 20.4905 5.80734C21.3228 5.18593 22.0664 4.45721 22.6485 3.60558C22.7639 3.44114 22.7514 3.22131 22.6183 3.06899C22.487 2.91667 22.2652 2.86993 22.0806 2.95475C21.8463 3.05687 21.5731 3.06726 21.3281 3.14861C21.6511 2.72799 21.928 2.27449 22.0948 1.76386C22.1516 1.58903 22.0895 1.3969 21.9422 1.28266C21.7949 1.17015 21.589 1.1563 21.4275 1.2515C20.652 1.69981 19.7931 2.01485 18.8862 2.20698C18.006 1.40382 16.8471 0.86377 15.5498 0.86377ZM15.5498 1.75001C16.7087 1.75001 17.7557 2.23294 18.4887 2.99629C18.5987 3.10707 18.7602 3.15381 18.9146 3.12092C19.5073 3.00668 20.0699 2.83877 20.6183 2.62241C20.3024 3.03783 19.912 3.39268 19.4541 3.66097C19.2465 3.75964 19.1488 3.99331 19.2252 4.20622C19.2997 4.41739 19.5269 4.54029 19.7522 4.49182C20.2066 4.43817 20.6112 4.25815 21.0442 4.14564C20.6555 4.55587 20.2296 4.92629 19.7664 5.25344C19.6404 5.34345 19.5712 5.48885 19.5819 5.64117C19.589 5.82119 19.5961 5.99948 19.5961 6.18122C19.5961 8.95073 18.5064 11.9574 16.43 14.2543C14.3537 16.5513 11.3048 18.1593 7.31532 18.1593C5.50338 18.1593 3.79259 17.7682 2.24685 17.0792C4.1635 16.9356 5.93107 16.2743 7.35791 15.1821C7.50698 15.0662 7.56555 14.8723 7.50521 14.6957C7.44487 14.5192 7.27805 14.398 7.08816 14.3928C5.59033 14.3668 4.33564 13.517 3.66659 12.3157C3.69143 12.3157 3.71273 12.3157 3.73758 12.3157C4.18657 12.3157 4.63024 12.2603 5.04374 12.1495C5.2425 12.0924 5.37915 11.9124 5.37205 11.7099C5.36495 11.5073 5.21765 11.3342 5.01534 11.291C3.39861 10.9725 2.18651 9.68811 1.90611 8.09218C2.36398 8.24624 2.83249 8.3674 3.34005 8.38298C3.54769 8.3951 3.7358 8.26874 3.79969 8.07661C3.86358 7.88447 3.78549 7.6733 3.6098 7.56598C2.5308 6.86148 1.82093 5.66194 1.82093 4.29796C1.82093 3.79252 1.9558 3.32863 2.13327 2.88551C4.40485 5.31748 7.58507 6.93245 11.177 7.10901C11.319 7.11593 11.4574 7.05881 11.5497 6.95322C11.642 6.84591 11.6775 6.70397 11.6455 6.56896C11.5763 6.28162 11.5319 5.97697 11.5319 5.66887C11.5319 3.49826 13.3244 1.75001 15.5498 1.75001Z" fill="white"/>
</svg>
