<svg width="24" height="23" viewBox="0 0 24 23" fill="none" xmlns="http://www.w3.org/2000/svg">
<path d="M14.3547 22.1609V15.0135H15.857C16.645 15.0135 17.3133 14.4389 17.434 13.6618L17.4341 13.6612L17.5568 12.8646C17.5568 12.8646 17.5569 12.8646 17.5569 12.8646C17.7058 11.898 16.9578 11.026 15.9797 11.026H14.3547V9.89301C14.3547 9.31326 14.4517 8.82784 14.6366 8.50521C14.8026 8.21551 15.0368 8.05096 15.4218 8.05096H15.924C16.9536 8.05096 17.7877 7.21688 17.7877 6.18733C17.7877 5.20375 17.0252 4.37549 16.0298 4.32659C15.7262 4.31136 15.3712 4.3021 14.9581 4.3021C13.5064 4.3021 12.2705 4.68659 11.4027 5.58906C10.5383 6.48804 10.1195 7.8179 10.1195 9.53733V11.0248H8.78654C7.6854 11.0248 6.79336 11.9169 6.79336 13.018C6.79336 14.1192 7.6854 15.0112 8.78654 15.0112H10.1206V22.1271C4.93366 21.0605 1.09522 16.3102 1.48194 10.7253M14.3547 22.1609L11.955 0.641612C6.47646 0.820828 1.86074 5.25815 1.48194 10.7253M14.3547 22.1609C19.3814 21.2056 23.182 16.8 23.182 11.4998C23.182 5.37926 18.1208 0.441776 11.9552 0.641608L14.3547 22.1609ZM1.48194 10.7253L0.983136 10.6907M1.48194 10.7253L0.983136 10.6907M0.983136 10.6907C0.576112 16.5689 4.64463 21.5626 10.1206 22.6371L11.9388 0.141875C6.20473 0.329375 1.37973 4.96687 0.983136 10.6907Z" stroke="white"/>
</svg>
