<svg width="26" height="25" viewBox="0 0 26 25" fill="none" xmlns="http://www.w3.org/2000/svg">
<path d="M15.3547 23.1609V16.0135H16.857C17.645 16.0135 18.3133 15.4389 18.434 14.6618L18.4341 14.6612L18.5568 13.8646C18.5568 13.8646 18.5569 13.8646 18.5569 13.8646C18.7058 12.898 17.9578 12.026 16.9797 12.026H15.3547V10.893C15.3547 10.3133 15.4517 9.82784 15.6366 9.50521C15.8026 9.21551 16.0368 9.05096 16.4218 9.05096H16.924C17.9536 9.05096 18.7877 8.21688 18.7877 7.18733C18.7877 6.20375 18.0252 5.37549 17.0298 5.32659C16.7262 5.31136 16.3712 5.3021 15.9581 5.3021C14.5064 5.3021 13.2705 5.68659 12.4027 6.58906C11.5383 7.48804 11.1195 8.8179 11.1195 10.5373V12.0248H9.78654C8.6854 12.0248 7.79336 12.9169 7.79336 14.018C7.79336 15.1192 8.6854 16.0112 9.78654 16.0112H11.1206V23.1271C5.93366 22.0605 2.09522 17.3102 2.48194 11.7253M15.3547 23.1609L12.955 1.64161C7.47646 1.82083 2.86074 6.25815 2.48194 11.7253M15.3547 23.1609C20.3814 22.2056 24.182 17.8 24.182 12.4998C24.182 6.37926 19.1208 1.44178 12.9552 1.64161L15.3547 23.1609ZM2.48194 11.7253L1.98314 11.6907M2.48194 11.7253L1.98314 11.6907M1.98314 11.6907C1.57611 17.5689 5.64463 22.5626 11.1206 23.6371L12.9388 1.14187C7.20473 1.32937 2.37973 5.96687 1.98314 11.6907Z" stroke="white"/>
</svg>
