<svg width="29" height="30" viewBox="0 0 29 30" fill="none" xmlns="http://www.w3.org/2000/svg">
<g filter="url(#filter0_d)">
<path d="M4.63623 6.95428C4.63623 4.09292 6.95669 1.77246 9.81805 1.77246H18.909C21.7703 1.77246 24.0908 4.09292 24.0908 6.95428V16.0452C24.0908 18.9065 21.7703 21.227 18.909 21.227H9.81805C6.95669 21.227 4.63623 18.9065 4.63623 16.0452V6.95428ZM22.818 4.68155C22.818 3.77814 22.0851 3.04519 21.1817 3.04519C20.2783 3.04519 19.5453 3.77814 19.5453 4.68155C19.5453 5.58497 20.2783 6.31791 21.1817 6.31791C22.0851 6.31791 22.818 5.58497 22.818 4.68155ZM20.5453 11.4997C20.5453 8.08609 17.7771 5.31791 14.3635 5.31791C10.9499 5.31791 8.18168 8.08609 8.18168 11.4997C8.18168 14.9134 10.9499 17.6815 14.3635 17.6815C17.7771 17.6815 20.5453 14.9134 20.5453 11.4997ZM12.3065 9.44269C12.852 8.89713 13.592 8.59064 14.3635 8.59064C15.135 8.59064 15.875 8.89713 16.4205 9.44269C16.9661 9.98825 17.2726 10.7282 17.2726 11.4997C17.2726 12.2713 16.9661 13.0112 16.4205 13.5568C15.875 14.1023 15.135 14.4088 14.3635 14.4088C13.592 14.4088 12.852 14.1023 12.3065 13.5568C11.7609 13.0112 11.4544 12.2713 11.4544 11.4997C11.4544 10.7282 11.7609 9.98825 12.3065 9.44269Z" stroke="white"/>
</g>
<defs>
<filter id="filter0_d" x="-1" y="0.13623" width="30.7273" height="30.7273" filterUnits="userSpaceOnUse" color-interpolation-filters="sRGB">
<feFlood flood-opacity="0" result="BackgroundImageFix"/>
<feColorMatrix in="SourceAlpha" type="matrix" values="0 0 0 0 0 0 0 0 0 0 0 0 0 0 0 0 0 0 127 0"/>
<feOffset dy="4"/>
<feGaussianBlur stdDeviation="2"/>
<feColorMatrix type="matrix" values="0 0 0 0 0 0 0 0 0 0 0 0 0 0 0 0 0 0 0.25 0"/>
<feBlend mode="normal" in2="BackgroundImageFix" result="effect1_dropShadow"/>
<feBlend mode="normal" in="SourceGraphic" in2="effect1_dropShadow" result="shape"/>
</filter>
</defs>
</svg>
