<svg width="213" height="16" viewBox="0 0 213 16" fill="none" xmlns="http://www.w3.org/2000/svg">
<path d="M6.07292 0.415577C7.36714 0.415577 8.41248 0.498693 9.25871 0.706485C10.1049 0.914277 10.752 1.20519 11.2498 1.53765C11.7476 1.87012 12.0463 2.2857 12.2454 2.78441C12.4445 3.24155 12.5441 3.78181 12.5441 4.32207C12.5441 5.02856 12.3449 5.65194 11.9467 6.1922C11.5485 6.73246 10.9014 7.1896 9.9556 7.56362C10.5529 7.77142 11.0507 7.97921 11.4987 8.27012C11.8969 8.51947 12.2454 8.81038 12.4445 9.14285C12.6934 9.47531 12.8427 9.80778 12.9423 10.1402C13.0418 10.4727 13.0916 10.8467 13.0916 11.2208C13.0916 11.8441 12.9921 12.426 12.7432 12.9662C12.4943 13.5065 12.1458 13.9636 11.6481 14.3792C11.1503 14.7948 10.4534 15.0857 9.60715 15.335C8.76093 15.5844 7.76537 15.6675 6.52092 15.6675H0V0.457135H6.07292V0.415577ZM9.30849 6.23376C9.90582 5.81817 10.2045 5.1948 10.2045 4.40519C10.2045 3.57402 9.90582 2.9922 9.25871 2.61817C8.61159 2.24415 7.51648 2.07791 5.97336 2.07791H2.28979V6.89869H6.37158C7.71559 6.85713 8.71115 6.64934 9.30849 6.23376ZM8.51204 13.7974C9.0596 13.6727 9.5076 13.5065 9.85604 13.2571C10.2045 13.0078 10.4036 12.7584 10.5529 12.3844C10.7023 12.0519 10.752 11.6779 10.752 11.2623C10.752 10.348 10.4534 9.6831 9.80626 9.22596C9.15915 8.76882 8.11381 8.51947 6.62047 8.51947H2.28979V14.0052H6.42136C7.26759 14.0052 7.96448 13.9636 8.51204 13.7974Z" fill="white"/>
<path d="M27.4275 0.415577V13.8805H36.8853L36.5368 15.626H25.0879V0.415577H27.4275Z" fill="white"/>
<path d="M56.6472 0.415577H54.1583L47.04 15.626H49.4792L51.3209 11.5532L52.1174 9.6831L52.217 9.47531V9.43375L55.2534 2.65973L58.3894 9.51687L58.4392 9.59999L58.489 9.72466L59.2357 11.4286L61.1272 15.6675H63.6659L56.6472 0.415577Z" fill="white"/>
<path d="M183.083 0.415577H180.594L173.476 15.626H175.915L177.757 11.5532L178.553 9.6831L178.653 9.47531V9.43375L181.689 2.65973L184.825 9.51687L184.875 9.59999L184.925 9.72466L185.672 11.4286L187.563 15.6675H190.102L183.083 0.415577Z" fill="white"/>
<path d="M88.555 12.7584C88.2065 13.4234 87.7088 14.0052 87.1114 14.4623C86.5141 14.9195 85.7674 15.3351 84.8714 15.5844C83.9754 15.8338 82.9799 16 81.835 16C80.5905 16 79.4456 15.8338 78.4501 15.4597C77.4545 15.0857 76.6083 14.587 75.9114 13.9221C75.2145 13.2571 74.6669 12.426 74.2687 11.4286C73.8705 10.4312 73.6714 9.30909 73.6714 8.06234C73.6714 6.77403 73.8705 5.65195 74.2687 4.65455C74.6669 3.65715 75.2643 2.82598 75.9612 2.16104C76.6581 1.49611 77.5541 0.955851 78.5496 0.623383C79.5452 0.249357 80.6403 0.0831223 81.7852 0.0831223C82.9301 0.0831223 83.8759 0.207798 84.6723 0.457149C85.4688 0.706499 86.1657 1.03897 86.763 1.49611C87.3106 1.95325 87.8083 2.45195 88.1568 3.07533C88.5052 3.6987 88.7541 4.36364 88.9532 5.11169L86.6634 5.44416C86.5141 4.9039 86.315 4.4052 86.0661 3.94806C85.8172 3.49092 85.5185 3.11689 85.1203 2.82598C84.7221 2.49351 84.2741 2.28572 83.7265 2.11949C83.179 1.95325 82.5319 1.87014 81.7852 1.87014C80.8892 1.87014 80.0927 2.03637 79.3959 2.32728C78.699 2.61819 78.1016 3.07533 77.6038 3.61559C77.1061 4.15585 76.7576 4.82079 76.5087 5.6104C76.2598 6.40001 76.1105 7.23117 76.1105 8.18702C76.1105 9.14286 76.2598 9.97403 76.5087 10.7636C76.7576 11.5532 77.1558 12.2182 77.6038 12.7584C78.1016 13.2987 78.699 13.7558 79.3959 14.0468C80.0927 14.3377 80.939 14.5039 81.835 14.5039C82.6812 14.5039 83.3781 14.4208 83.9754 14.2546C84.5728 14.0883 85.0705 13.839 85.419 13.5065C85.8172 13.174 86.1159 12.8 86.315 12.3429C86.5141 11.8857 86.7132 11.387 86.8128 10.8468H89.2519C89.1026 11.387 88.9034 12.0935 88.555 12.7584Z" fill="white"/>
<path d="M103.737 0.415581V7.68831L112.299 0.415581H114.987L108.417 6.10908L115.585 15.626H112.897L106.724 7.39739L103.737 9.8909V15.5844H101.348V0.37402H103.737V0.415581Z" fill="white"/>
<path d="M129.224 13.6312C130.02 14.0883 131.215 14.3377 132.857 14.3377C133.654 14.3377 134.301 14.2545 134.848 14.1299C135.396 13.9636 135.794 13.7974 136.143 13.548C136.441 13.2987 136.69 13.0078 136.84 12.6753C136.989 12.3429 137.039 12.0104 137.039 11.6364C137.039 11.3455 136.989 11.0545 136.889 10.7636C136.79 10.4727 136.64 10.2234 136.392 10.0156C136.143 9.80779 135.794 9.6 135.346 9.43376C134.898 9.26753 134.351 9.14285 133.654 9.01818L131.414 8.60259C130.518 8.47792 129.721 8.31169 129.024 8.10389C128.328 7.8961 127.73 7.60519 127.232 7.27273C126.735 6.94026 126.386 6.52467 126.137 6.02597C125.888 5.52727 125.789 4.94545 125.789 4.1974C125.789 3.49091 125.988 2.90909 126.336 2.36883C126.685 1.82857 127.133 1.41299 127.73 1.03896C128.328 0.664935 129.024 0.415584 129.871 0.24935C130.717 0.0831162 131.563 0 132.509 0C133.704 0 134.749 0.124673 135.545 0.332466C136.342 0.540258 136.989 0.831166 137.536 1.20519C138.084 1.57922 138.433 1.9948 138.681 2.49351C138.93 2.95065 139.129 3.44935 139.279 3.94805L137.088 4.32207C136.939 3.90649 136.79 3.53247 136.541 3.2C136.342 2.86753 136.043 2.57662 135.695 2.36883C135.346 2.16104 134.898 1.9948 134.4 1.87013C133.903 1.74545 133.256 1.7039 132.559 1.7039C131.712 1.7039 131.016 1.78701 130.468 1.91169C129.92 2.03636 129.472 2.20259 129.124 2.45195C128.776 2.65974 128.527 2.95065 128.377 3.24156C128.228 3.53246 128.178 3.86493 128.178 4.1974C128.178 4.57143 128.228 4.90389 128.328 5.15324C128.427 5.44415 128.626 5.65195 128.875 5.85974C129.124 6.06753 129.472 6.23376 129.92 6.35844C130.368 6.48311 130.866 6.60779 131.513 6.69091L134.052 7.06493C135.944 7.35584 137.337 7.85454 138.233 8.56104C139.129 9.26753 139.577 10.2649 139.577 11.5948C139.577 12.2182 139.428 12.7584 139.179 13.2987C138.881 13.839 138.482 14.2961 137.935 14.7117C137.387 15.1273 136.69 15.4182 135.844 15.6675C134.998 15.9169 134.052 16 132.907 16C131.812 16 130.866 15.9169 129.97 15.7506C129.074 15.5844 128.328 15.2935 127.68 14.9195C127.033 14.5454 126.536 14.0467 126.137 13.4649C125.739 12.8831 125.49 12.1766 125.44 11.3455H127.78C127.929 12.3844 128.427 13.1325 129.224 13.6312Z" fill="white"/>
<path d="M149.931 2.16103V0.415577H164.367V2.16103H158.344V15.626H155.954V2.16103H149.931Z" fill="white"/>
<path d="M205.583 0.415581C206.927 0.415581 208.072 0.540253 208.918 0.789604C209.765 1.03895 210.461 1.37142 210.959 1.78701C211.457 2.20259 211.805 2.65974 212.005 3.15844C212.204 3.65714 212.303 4.1974 212.303 4.6961C212.303 5.65194 212.054 6.48311 211.557 7.14805C211.059 7.81298 210.262 8.35324 209.167 8.72727L213 15.5844H210.362L206.927 9.22597C206.728 9.26753 206.479 9.26753 206.23 9.26753C205.981 9.26753 205.733 9.26753 205.533 9.26753H201.949V15.5844H199.61V0.37402H205.583V0.415581ZM207.823 7.43895C208.371 7.31428 208.769 7.10649 209.068 6.85714C209.366 6.60779 209.565 6.31688 209.715 5.94285C209.814 5.56882 209.914 5.1948 209.914 4.73766C209.914 4.32207 209.864 3.94805 209.715 3.61558C209.565 3.28311 209.366 2.9922 209.018 2.78441C208.669 2.53506 208.221 2.36882 207.674 2.24415C207.126 2.11947 206.38 2.07792 205.533 2.07792H201.949V7.64675H205.832C206.629 7.64675 207.276 7.56363 207.823 7.43895Z" fill="white"/>
</svg>
