<svg width="24" height="20" viewBox="0 0 24 20" fill="none" xmlns="http://www.w3.org/2000/svg">
<path d="M16.459 0.40918C13.742 0.40918 11.5325 2.5642 11.5325 5.21428C11.5325 5.37352 11.5733 5.52931 11.5893 5.68509C8.22982 5.37179 5.25902 3.79317 3.24121 1.37851C3.14716 1.26253 3.00163 1.20022 2.84901 1.21061C2.69816 1.22099 2.56329 1.30581 2.48875 1.4339C2.0646 2.14531 1.82147 2.96405 1.82147 3.84337C1.82147 4.9079 2.2119 5.88242 2.81529 6.68211C2.69816 6.63192 2.57039 6.60422 2.46036 6.54364C2.32016 6.47094 2.15156 6.4744 2.01491 6.55402C1.87826 6.63365 1.79485 6.77732 1.79308 6.93137V6.98676C1.79308 8.61904 2.65912 10.0367 3.93689 10.9056C3.92269 10.9039 3.90849 10.9091 3.89429 10.9056C3.73812 10.8796 3.58018 10.9333 3.47547 11.0493C3.37076 11.1653 3.33705 11.3262 3.38319 11.4734C3.89074 13.0122 5.18626 14.1875 6.79056 14.6168C5.5128 15.3576 4.03094 15.7938 2.43196 15.7938C2.0859 15.7938 1.75404 15.7765 1.42395 15.7384C1.21099 15.7107 1.0069 15.8319 0.935912 16.0292C0.86315 16.2265 0.94301 16.4464 1.1258 16.5554C3.17555 17.838 5.60863 18.591 8.2245 18.591C12.4642 18.591 15.7899 16.8635 18.0207 14.3952C20.2515 11.9269 21.4139 8.72116 21.4139 5.72663C21.4139 5.60028 21.4032 5.47738 21.3997 5.35275C22.232 4.73134 22.9756 4.00262 23.5577 3.15099C23.673 2.98655 23.6606 2.76672 23.5275 2.6144C23.3962 2.46208 23.1744 2.41534 22.9898 2.50016C22.7555 2.60228 22.4822 2.61267 22.2373 2.69402C22.5603 2.2734 22.8372 1.8199 23.004 1.30927C23.0608 1.13444 22.9987 0.94231 22.8514 0.828068C22.7041 0.715556 22.4982 0.701709 22.3367 0.796911C21.5612 1.24522 20.7022 1.56026 19.7954 1.75239C18.9151 0.949234 17.7563 0.40918 16.459 0.40918ZM16.459 1.29542C17.6178 1.29542 18.6649 1.77836 19.3978 2.5417C19.5079 2.65248 19.6694 2.69922 19.8238 2.66633C20.4165 2.55209 20.9791 2.38418 21.5275 2.16782C21.2116 2.58324 20.8211 2.93809 20.3633 3.20638C20.1556 3.30505 20.058 3.53872 20.1343 3.75163C20.2089 3.9628 20.436 4.0857 20.6614 4.03723C21.1157 3.98358 21.5204 3.80356 21.9534 3.69105C21.5647 4.10128 21.1388 4.4717 20.6756 4.79885C20.5496 4.88886 20.4804 5.03426 20.491 5.18658C20.4981 5.3666 20.5052 5.54489 20.5052 5.72663C20.5052 8.49614 19.4156 11.5028 17.3392 13.7997C15.2629 16.0967 12.214 17.7048 8.2245 17.7048C6.41256 17.7048 4.70177 17.3136 3.15603 16.6246C5.07268 16.481 6.84025 15.8198 8.26709 14.7275C8.41616 14.6116 8.47473 14.4177 8.41439 14.2411C8.35405 14.0646 8.18723 13.9434 7.99734 13.9382C6.49951 13.9123 5.24482 13.0624 4.57577 11.8611C4.60061 11.8611 4.62191 11.8611 4.64675 11.8611C5.09575 11.8611 5.53942 11.8057 5.95292 11.6949C6.15168 11.6378 6.28833 11.4578 6.28123 11.2553C6.27413 11.0527 6.12683 10.8796 5.92452 10.8364C4.30779 10.5179 3.09569 9.23352 2.81529 7.63759C3.27316 7.79165 3.74167 7.91281 4.24923 7.92839C4.45687 7.94051 4.64498 7.81415 4.70887 7.62202C4.77276 7.42988 4.69467 7.21871 4.51898 7.11139C3.43998 6.40689 2.73011 5.20735 2.73011 3.84337C2.73011 3.33793 2.86498 2.87404 3.04245 2.43092C5.31403 4.86289 8.49425 6.47786 12.0862 6.65442C12.2282 6.66134 12.3666 6.60422 12.4589 6.49863C12.5512 6.39132 12.5866 6.24938 12.5547 6.11437C12.4855 5.82703 12.4411 5.52238 12.4411 5.21428C12.4411 3.04367 14.2335 1.29542 16.459 1.29542Z" fill="white"/>
</svg>
